<?xml version="1.0" encoding="UTF-8"?>
<svg width="1242px" height="505px" viewBox="0 0 1242 505" version="1.1" xmlns="http://www.w3.org/2000/svg" xmlns:xlink="http://www.w3.org/1999/xlink">
    <title>Group 9</title>
    <g id="❇️-Design/Piktochart" stroke="none" stroke-width="1" fill="none" fill-rule="evenodd">
        <g id="FORMAT_PRESENTATION" transform="translate(-125.000000, -7389.000000)">
            <g id="Group-9" transform="translate(126.000000, 7389.000000)">
                <path d="M80,45 C71.0943352,46.7089721 69.7089499,48.0943573 68.0000222,57 C66.2910501,48.0943573 64.9056648,46.7089721 56,45 C64.9056648,43.2910501 66.2910501,41.9056648 68.0000222,33 C69.7089499,41.9056648 71.0943352,43.2910501 80,45" id="Fill-1-Copy-3" stroke="#FFC303"></path>
                <path d="M832,12 C823.094335,13.7089721 821.70895,15.0943573 820.000022,24 C818.29105,15.0943573 816.905665,13.7089721 808,12 C816.905665,10.2910501 818.29105,8.90566484 820.000022,0 C821.70895,8.90566484 823.094335,10.2910501 832,12" id="Fill-1-Copy-4" fill="#FFC303"></path>
                <path d="M255,423.000183 C255,430.731967 248.731967,437 240.999817,437 C233.268033,437 227,430.731967 227,423.000183 C227,415.268033 233.268033,409 240.999817,409 C248.731967,409 255,415.268033 255,423.000183" id="Fill-32-Copy-5" fill="#EF6094"></path>
                <path d="M1149,254.000183 C1149,261.731967 1142.73197,268 1134.99982,268 C1127.26803,268 1121,261.731967 1121,254.000183 C1121,246.268033 1127.26803,240 1134.99982,240 C1142.73197,240 1149,246.268033 1149,254.000183" id="Fill-32-Copy-10" fill="#EF6094"></path>
                <path d="M1240,477.500124 C1240,482.746692 1235.74669,487 1230.49988,487 C1225.25331,487 1221,482.746692 1221,477.500124 C1221,472.253308 1225.25331,468 1230.49988,468 C1235.74669,468 1240,472.253308 1240,477.500124" id="Fill-32-Copy-7" stroke="#ED1164"></path>
                <path d="M417,15.0001178 C417,19.9705501 412.97055,24 407.999882,24 C403.02945,24 399,19.9705501 399,15.0001178 C399,10.0294499 403.02945,6 407.999882,6 C412.97055,6 417,10.0294499 417,15.0001178" id="Fill-32-Copy-6" stroke="#0FB4BB"></path>
                <rect id="Rectangle-Copy-12" fill="#0FB4BB" x="42" y="375" width="19" height="19"></rect>
                <rect id="Rectangle-Copy-17" fill="#324CA2" transform="translate(999.500000, 404.500000) rotate(-45.000000) translate(-999.500000, -404.500000) " x="990" y="395" width="19" height="19"></rect>
                <rect id="Rectangle-Copy-9" stroke="#FFC303" transform="translate(1174.000000, 61.000000) rotate(-45.000000) translate(-1174.000000, -61.000000) " x="1163.5" y="50.5" width="21" height="21"></rect>
                <line x1="379.865039" y1="495.765165" x2="402.595116" y2="495.234835" id="Path-4-Copy-2" stroke="#353254" transform="translate(391.365039, 495.265165) rotate(45.000000) translate(-391.365039, -495.265165) "></line>
                <line x1="0" y1="183.395184" x2="16.447592" y2="167.697592" id="Path-4-Copy-3" stroke="#353254"></line>
            </g>
        </g>
    </g>
</svg>